<svg width="769" height="576" viewBox="0 0 769 576" xmlns="http://www.w3.org/2000/svg" xmlns:xlink="http://www.w3.org/1999/xlink"><title>Desktop HD</title><defs><path id="a" d="M0 .653h767.406V574.52H0z"/><path id="c" d="M0 .653h767.406V574.52H0z"/></defs><g fill="none" fill-rule="evenodd"><path d="M383.594 384.683v-74.455c78.81 0 139.984-78.156 109.723-161.1-11.103-30.697-35.703-55.298-66.4-66.4-82.945-30.044-161.1 30.913-161.1 109.722h-74.02c0-125.615 121.48-223.582 253.19-182.436 57.474 18.288 103.19 64.005 121.043 121.48 41.146 131.71-56.603 253.19-182.436 253.19" fill="#FFF"/><path fill="#FFF" d="M383.812 310.446h-74.02v-74.02h74.02v74.02"/><path fill="#FFF" d="M309.793 367.484h-57.04v-57.038h57.04v57.038"/><path d="M252.754 310.446h-47.677V262.77h47.677v47.676M66.4 459.79c-9.58-6.748-21.77-10.014-35.704-10.014H0v97.096h30.696c13.933 0 26.125-3.483 35.704-10.667 5.225-3.7 9.36-8.926 12.41-15.457 2.83-6.53 4.353-14.37 4.353-22.86s-1.524-16.11-4.354-22.64c-3.05-6.75-7.185-11.756-12.41-15.457zm-48.548 6.314h9.58c10.666 0 19.374 2.177 26.123 6.314 7.402 4.57 11.103 12.844 11.103 25.253 0 12.628-3.7 21.554-11.103 26.343-6.313 4.137-15.02 6.314-25.907 6.314h-9.796v-64.223zM104.28 448.688c-3.048 0-5.442 1.088-7.62 3.048-1.96 1.96-3.047 4.354-3.047 7.402 0 3.047 1.088 5.442 3.048 7.62 1.96 1.96 4.572 3.047 7.62 3.047 2.83 0 5.443-1.088 7.62-3.048 1.96-1.96 3.048-4.572 3.048-7.62 0-3.047-1.09-5.442-3.048-7.4-2.177-2.178-4.572-3.05-7.62-3.05" fill="#FFF"/><mask id="b" fill="#fff"><use xlink:href="#a"/></mask><path fill="#FFF" mask="url(#b)" d="M95.572 478.513h17.2v68.36h-17.2z"/><mask id="d" fill="#fff"><use xlink:href="#c"/></mask><path d="M175.252 484.174c-5.225-4.572-10.886-7.402-17.2-7.402-9.578 0-17.415 3.265-23.51 9.796-6.097 6.314-9.362 14.586-9.362 24.6 0 9.58 3.048 17.853 9.143 24.384 6.096 6.313 14.15 9.58 23.512 9.58 6.53 0 12.41-1.743 16.98-5.444v1.524c0 5.66-1.523 10.014-4.57 13.062-3.048 3.048-7.185 4.572-12.41 4.572-7.837 0-12.844-3.048-18.94-11.32l-11.756 11.32.217.435c2.612 3.485 6.313 6.968 11.538 10.233 5.007 3.266 11.538 5.008 19.158 5.008 10.232 0 18.505-3.047 24.6-9.36 6.096-6.314 9.144-14.587 9.144-24.82v-62.044h-16.98v5.878h.435zm-4.572 40.492c-3.048 3.484-6.967 5.008-11.756 5.008-5.007 0-8.708-1.742-11.756-5.008-3.048-3.483-4.354-7.837-4.354-13.28 0-5.66 1.524-10.014 4.354-13.497 2.83-3.484 6.966-5.008 11.756-5.008 5.007 0 8.708 1.74 11.756 5.007 3.048 3.482 4.572 8.054 4.572 13.497 0 5.224-1.524 9.796-4.572 13.28z" fill="#FFF" mask="url(#d)"/><path fill="#FFF" d="M206.82 478.513h17.198v68.36h-17.2zM215.745 448.688c-3.048 0-5.443 1.088-7.62 3.048-1.96 1.96-3.048 4.354-3.048 7.402 0 3.047 1.09 5.442 3.048 7.62 1.96 1.96 4.572 3.047 7.62 3.047 2.83 0 5.442-1.088 7.62-3.048 1.96-1.96 3.047-4.572 3.047-7.62 0-3.047-1.088-5.442-3.048-7.4-2.177-2.178-4.79-3.05-7.62-3.05M261.68 460.008H244.7v18.505h-9.58v15.675h9.797v28.3c0 8.927 1.742 15.24 5.225 18.942 3.483 3.7 9.796 5.442 18.505 5.442 2.83 0 5.66 0 8.272-.217h.87V530.98l-5.878.218c-4.136 0-6.75-.654-8.055-2.177-1.306-1.523-1.96-4.57-1.96-9.143v-25.69h16.11v-15.674h-16.11v-18.505M358.34 449.776h17.2v97.096h-17.2zM549.485 522.49c-3.048 3.483-6.314 6.53-8.708 8.054-2.395 1.524-5.443 2.395-8.926 2.395-5.007 0-9.143-1.742-12.408-5.66-3.266-3.702-5.008-8.71-5.008-14.37 0-5.878 1.742-10.667 5.008-14.368 3.265-3.7 7.4-5.66 12.41-5.66 5.44 0 11.32 3.483 16.326 9.36l11.32-10.884c-7.4-9.58-16.762-14.15-28.083-14.15-9.36 0-17.634 3.482-24.383 10.23-6.748 6.75-10.014 15.24-10.014 25.472 0 10.233 3.483 18.723 10.014 25.472 6.75 6.75 14.804 10.232 24.383 10.232 12.41 0 22.424-5.443 29.173-15.24l-11.103-10.885M620.02 488.092c-2.394-3.483-5.66-6.096-9.796-8.055-4.136-1.96-8.926-3.048-14.15-3.048-9.58 0-17.417 3.483-23.295 10.45-5.66 6.966-8.71 15.456-8.71 25.688 0 10.45 3.266 18.94 9.362 25.472 6.314 6.53 14.586 9.796 24.818 9.796 11.54 0 21.118-4.79 28.302-13.933l.435-.435-11.32-10.885c-1.09 1.306-2.613 2.612-3.92 3.918-1.74 1.525-3.265 2.83-5.006 3.702-2.612 1.306-5.442 1.96-8.707 1.96-4.79 0-8.708-1.307-11.756-4.137-2.83-2.612-4.572-6.096-5.008-10.45h45.717l.218-6.313c0-4.354-.653-8.708-1.742-12.627-1.306-4.136-3.047-7.837-5.442-11.103zm-37.662 16.11c.87-3.265 2.395-6.095 4.572-8.055 2.395-2.395 5.442-3.483 8.926-3.483 4.136 0 7.402 1.088 9.58 3.483 1.958 2.177 3.264 4.79 3.482 8.055h-26.56zM685.985 483.52c-5.225-4.354-12.41-6.748-21.335-6.748-5.66 0-11.103 1.306-15.892 3.7-4.572 2.178-8.926 6.096-11.756 10.886l.217.217 11.102 10.45c4.572-7.184 9.58-9.796 16.328-9.796 3.7 0 6.53.87 8.926 2.83 2.177 1.958 3.483 4.353 3.483 7.4v3.266c-4.355-1.306-8.49-1.96-12.628-1.96-8.49 0-15.457 1.96-20.682 5.88-5.224 3.918-7.837 9.796-7.837 17.197 0 6.532 2.177 11.54 6.75 15.457 4.57 3.7 10.013 5.66 16.544 5.66 6.532 0 12.627-2.612 18.288-7.183v5.66h16.98v-43.54c-.435-8.274-3.265-14.805-8.49-19.377zm-30.478 37.228c1.96-1.306 4.79-1.96 8.272-1.96 4.136 0 8.49.87 13.06 2.395v6.75c-3.7 3.482-8.707 5.224-14.802 5.224-3.048 0-5.225-.653-6.967-1.96-1.523-1.306-2.394-2.83-2.394-5.007 0-2.394.87-4.136 2.83-5.442zM760.222 485.044c-4.79-5.442-11.538-8.055-20.03-8.055-6.747 0-12.408 1.96-16.544 5.877v-4.136h-16.763v68.36h17.198v-37.663c0-5.225 1.306-9.36 3.7-12.19 2.396-2.83 5.662-4.355 10.233-4.355 3.92 0 6.75 1.306 8.926 3.918 2.177 2.613 3.266 6.314 3.266 10.668v39.622h17.198v-39.84c0-9.58-2.394-16.98-7.184-22.206M336.788 483.52c-5.225-4.354-12.41-6.748-21.335-6.748-5.66 0-11.103 1.306-15.892 3.7-4.57 2.178-8.925 6.096-11.755 10.886l.217.217 11.103 10.45c4.572-7.184 9.58-9.796 16.328-9.796 3.7 0 6.53.87 8.926 2.83 2.176 1.958 3.482 4.353 3.482 7.4v3.266c-4.354-1.306-8.49-1.96-12.627-1.96-8.49 0-15.457 1.96-20.682 5.88-5.224 3.918-7.837 9.796-7.837 17.197 0 6.532 2.177 11.54 6.75 15.457 4.57 3.7 10.013 5.66 16.544 5.66 6.532 0 12.627-2.612 18.288-7.183v5.66h16.98v-43.54c-.435-8.274-3.265-14.805-8.49-19.377zm-30.48 37.228c1.96-1.306 4.79-1.96 8.274-1.96 4.137 0 8.49.87 13.062 2.395v6.75c-3.7 3.482-8.708 5.224-14.803 5.224-3.047 0-5.224-.653-6.966-1.96-1.524-1.306-2.395-2.83-2.395-5.007 0-2.394.87-4.136 2.83-5.442zM438.02 548.396c-27.648 0-50.072-22.423-50.072-50.072 0-27.648 22.424-50.072 50.072-50.072 27.65 0 50.072 22.424 50.072 50.072 0 27.43-22.423 50.072-50.072 50.072zm0-82.51c-17.85 0-32.438 14.587-32.438 32.438 0 17.852 14.587 32.438 32.438 32.438 17.852 0 32.438-14.586 32.438-32.438 0-17.85-14.586-32.438-32.438-32.438z"/></g></svg>