<svg version="1" xmlns="http://www.w3.org/2000/svg" width="682.667" height="682.667" viewBox="0 0 512 512"><path d="M61.4 73.7C36.9 105 21.6 125.4 20 128.9l-2.5 5.6v151l2.7 6.4 2.7 6.4-2.2 4.1-2.2 4.1-.3 77.8-.2 77.8 2.6 5.9c3.3 7.3 11 14.9 17.9 17.6 4.9 1.9 10.1 1.9 218 1.9h213l5.3-2.4c6.5-2.9 14.9-11.8 17.7-18.7 1.9-4.7 2-7.8 2.3-75.8.3-72.8 0-80.1-3.6-88.7-1.8-4.2-1.8-4.3.7-10.3l2.6-6.1.3-70.9c.3-70.9 0-79.8-3.2-86.6-.9-1.9-19-26-40.4-53.5l-38.7-50-156.2-.3-156.1-.2-38.8 49.7zM454 210v62H58V148h396v62zm0 175.5V448H58V323h396v62.5z"/></svg>